<svg width="153" height="52" viewBox="0 0 153 52" fill="none" xmlns="http://www.w3.org/2000/svg">
<path d="M0.85 27.8L20.3 14.4L25.3 16.9V25.25L14.65 32.75L25.3 38.2V46.8L0.85 34.3V27.8ZM8.65 30.35L19.8 22.5V15.35L1.35 28.05V34L19.8 43.45V36L8.65 30.35ZM52.4824 20.1C52.2491 19.5333 51.9991 19 51.7324 18.5C51.4991 18 51.2491 17.5333 50.9824 17.1C48.6491 17.3667 46.9658 18.5167 45.9324 20.55C44.8991 22.5833 44.3824 25.2333 44.3824 28.5C44.3824 32.1 44.8824 34.7833 45.8824 36.55C45.9824 36.5167 46.1324 36.5 46.3324 36.5C47.3324 36.4 48.1824 36.0333 48.8824 35.4C49.6158 34.7333 50.2324 33.9167 50.7324 32.95C51.2658 31.95 51.6991 30.9 52.0324 29.8L64.1824 35.95C62.9824 39.55 61.3824 42.4 59.3824 44.5C57.3824 46.6 54.5991 47.8 51.0324 48.1C50.7658 48.1333 50.4824 48.15 50.1824 48.15C49.9158 48.15 49.6491 48.15 49.3824 48.15C47.0491 48.15 44.7491 47.7333 42.4824 46.9C40.2491 46.1 38.2324 44.8333 36.4324 43.1C34.6658 41.3667 33.2491 39.15 32.1824 36.45C31.1158 33.7167 30.5824 30.45 30.5824 26.65C30.5824 23.85 30.9324 21.2167 31.6324 18.75C32.3324 16.25 33.3491 14.05 34.6824 12.15C36.0491 10.25 37.6824 8.71666 39.5824 7.55C41.5158 6.35 43.6991 5.65 46.1324 5.45C46.3991 5.41666 46.6658 5.4 46.9324 5.4C47.1991 5.4 47.4658 5.4 47.7324 5.4C50.3991 5.4 52.8158 5.96666 54.9824 7.1C57.1824 8.23333 59.0658 9.73333 60.6324 11.6C62.2324 13.4667 63.4491 15.5333 64.2824 17.8L57.4824 22.6L52.4824 20.1ZM52.3324 30.55C52.0324 31.5167 51.6158 32.4833 51.0824 33.45C50.5491 34.4167 49.8991 35.2333 49.1324 35.9C48.3658 36.5333 47.4491 36.9 46.3824 37C46.2491 37.0333 46.0991 37.05 45.9324 37.05C45.7991 37.05 45.6491 37.05 45.4824 37.05C43.3491 37.05 41.7158 36.1833 40.5824 34.45C39.4491 32.7167 38.8824 29.9 38.8824 26C38.8824 22.5 39.4491 19.7 40.5824 17.6C41.7158 15.5 43.5491 14.3333 46.0824 14.1H46.6324C48.2658 14.1 49.5324 14.6167 50.4324 15.65C51.3658 16.6833 52.1158 17.9167 52.6824 19.35L58.6824 15.15C58.0824 13.55 57.2991 12.05 56.3324 10.65C55.3991 9.25 54.1991 8.11666 52.7324 7.25C51.2991 6.35 49.5324 5.9 47.4324 5.9C47.2324 5.9 47.0324 5.9 46.8324 5.9C46.6324 5.9 46.4158 5.91666 46.1824 5.95C43.8158 6.15 41.6991 6.83333 39.8324 8C37.9658 9.13333 36.3824 10.6333 35.0824 12.5C33.7824 14.3667 32.7824 16.5167 32.0824 18.95C31.4158 21.35 31.0824 23.9167 31.0824 26.65C31.0824 30.45 31.6324 33.7333 32.7324 36.5C33.8658 39.2667 35.4491 41.4 37.4824 42.9C39.5491 44.4 41.9491 45.15 44.6824 45.15C44.8824 45.15 45.0824 45.15 45.2824 45.15C45.5158 45.15 45.7491 45.1333 45.9824 45.1C49.4491 44.8333 52.1324 43.7 54.0324 41.7C55.9658 39.6667 57.4824 37.0167 58.5824 33.75L52.3324 30.55ZM86.3059 44.6L82.2559 37.85V47.35L73.7059 48.1L68.7059 45.6V7.6L77.2559 6.85L82.2559 9.35V12.05L85.6059 6.6L95.2559 5.75L100.256 8.25L88.9059 26.05L101.256 46.25L91.3059 47.1L86.3059 44.6ZM94.3059 6.35L85.9059 7.1L76.7559 22.05V7.4L69.2059 8.05V45.05L76.7559 44.45V33.8L78.6559 30.85L86.5559 44.1L95.3559 43.3L83.3059 23.6L94.3059 6.35ZM96.5879 49.25L116.238 0.999997L123.238 0.399999L128.238 2.9L108.588 51.15L101.588 51.75L96.5879 49.25ZM116.538 1.5L97.3879 48.65L103.238 48.15L122.438 0.999997L116.538 1.5ZM128.288 45.95V37.35L138.938 30.05L128.288 24.4V16.1L152.738 28.65V35.15L133.288 48.45L128.288 45.95ZM128.788 16.95V24.1L139.938 30L128.788 37.6V45L147.238 32.4V26.45L128.788 16.95Z" fill="#203739"/>
</svg>
