<svg width="185" height="52" viewBox="0 0 185 52" fill="none" xmlns="http://www.w3.org/2000/svg">
<path d="M0.85 27.8L20.3 14.4L25.3 16.9V25.25L14.65 32.75L25.3 38.2V46.8L0.85 34.3V27.8ZM8.65 30.35L19.8 22.5V15.35L1.35 28.05V34L19.8 43.45V36L8.65 30.35ZM68.498 20.1C68.2647 19.5333 68.0147 19 67.748 18.5C67.5147 18 67.2647 17.5333 66.998 17.1C64.6647 17.3667 62.9814 18.5167 61.948 20.55C60.9147 22.5833 60.398 25.2333 60.398 28.5C60.398 32.1 60.898 34.7833 61.898 36.55C61.998 36.5167 62.148 36.5 62.348 36.5C63.348 36.4 64.198 36.0333 64.898 35.4C65.6314 34.7333 66.248 33.9167 66.748 32.95C67.2814 31.95 67.7147 30.9 68.048 29.8L80.198 35.95C78.998 39.55 77.398 42.4 75.398 44.5C73.398 46.6 70.6147 47.8 67.048 48.1C66.7814 48.1333 66.498 48.15 66.198 48.15C65.9314 48.15 65.6647 48.15 65.398 48.15C63.0647 48.15 60.7647 47.7333 58.498 46.9C56.2647 46.1 54.248 44.8333 52.448 43.1C50.6814 41.3667 49.2647 39.15 48.198 36.45C47.1314 33.7167 46.598 30.45 46.598 26.65C46.598 23.85 46.948 21.2167 47.648 18.75C48.348 16.25 49.3647 14.05 50.698 12.15C52.0647 10.25 53.698 8.71666 55.598 7.55C57.5314 6.35 59.7147 5.65 62.148 5.45C62.4147 5.41666 62.6814 5.4 62.948 5.4C63.2147 5.4 63.4814 5.4 63.748 5.4C66.4147 5.4 68.8314 5.96666 70.998 7.1C73.198 8.23333 75.0814 9.73333 76.648 11.6C78.248 13.4667 79.4647 15.5333 80.298 17.8L73.498 22.6L68.498 20.1ZM68.348 30.55C68.048 31.5167 67.6314 32.4833 67.098 33.45C66.5647 34.4167 65.9147 35.2333 65.148 35.9C64.3814 36.5333 63.4647 36.9 62.398 37C62.2647 37.0333 62.1147 37.05 61.948 37.05C61.8147 37.05 61.6647 37.05 61.498 37.05C59.3647 37.05 57.7314 36.1833 56.598 34.45C55.4647 32.7167 54.898 29.9 54.898 26C54.898 22.5 55.4647 19.7 56.598 17.6C57.7314 15.5 59.5647 14.3333 62.098 14.1H62.648C64.2814 14.1 65.548 14.6167 66.448 15.65C67.3814 16.6833 68.1314 17.9167 68.698 19.35L74.698 15.15C74.098 13.55 73.3147 12.05 72.348 10.65C71.4147 9.25 70.2147 8.11666 68.748 7.25C67.3147 6.35 65.548 5.9 63.448 5.9C63.248 5.9 63.048 5.9 62.848 5.9C62.648 5.9 62.4314 5.91666 62.198 5.95C59.8314 6.15 57.7147 6.83333 55.848 8C53.9814 9.13333 52.398 10.6333 51.098 12.5C49.798 14.3667 48.798 16.5167 48.098 18.95C47.4314 21.35 47.098 23.9167 47.098 26.65C47.098 30.45 47.648 33.7333 48.748 36.5C49.8814 39.2667 51.4647 41.4 53.498 42.9C55.5647 44.4 57.9647 45.15 60.698 45.15C60.898 45.15 61.098 45.15 61.298 45.15C61.5314 45.15 61.7647 45.1333 61.998 45.1C65.4647 44.8333 68.148 43.7 70.048 41.7C71.9814 39.6667 73.498 37.0167 74.598 33.75L68.348 30.55ZM102.321 44.6L98.2715 37.85V47.35L89.7215 48.1L84.7215 45.6V7.6L93.2715 6.85L98.2715 9.35V12.05L101.621 6.6L111.271 5.75L116.271 8.25L104.921 26.05L117.271 46.25L107.321 47.1L102.321 44.6ZM110.321 6.35L101.921 7.1L92.7715 22.05V7.4L85.2215 8.05V45.05L92.7715 44.45V33.8L94.6715 30.85L102.571 44.1L111.371 43.3L99.3215 23.6L110.321 6.35ZM128.619 49.25L148.269 0.999997L155.269 0.399999L160.269 2.9L140.619 51.15L133.619 51.75L128.619 49.25ZM148.569 1.5L129.419 48.65L135.269 48.15L154.469 0.999997L148.569 1.5ZM160.319 45.95V37.35L170.969 30.05L160.319 24.4V16.1L184.769 28.65V35.15L165.319 48.45L160.319 45.95ZM160.819 16.95V24.1L171.969 30L160.819 37.6V45L179.269 32.4V26.45L160.819 16.95Z" fill="#203739"/>
</svg>
