<svg width="120" height="120" viewBox="0 0 120 120" fill="none" xmlns="http://www.w3.org/2000/svg">
<rect width="120" height="120" fill="black"/>
<path d="M0.00764623 0H0V0.00764623H0.00764623V0Z" fill="#222222"/>
<path d="M42.987 87.0221C42.2989 87.0221 41.9548 86.1046 41.9548 84.2618V38.7591C41.9548 37.8798 41.7789 37.4669 41.4196 37.5204L38.124 38.3462C37.52 38.3997 37.2218 37.7957 37.2218 36.534V32.5809C37.2218 31.4875 37.5506 30.8682 38.2081 30.7305L49.0811 27.932C49.1652 27.9091 49.2875 27.8938 49.4481 27.8938C50.0522 27.8938 50.3504 28.5361 50.3504 29.8283V84.2695C50.3504 86.1122 49.991 87.0298 49.2799 87.0298L42.987 87.0221ZM71.1481 87.1062C70.0471 87.1062 69.0989 87.0298 68.2884 86.8768C67.4779 86.7239 66.6368 86.3798 65.7575 85.8446C64.8782 85.3094 64.1595 84.5753 63.5936 83.6425C63.0278 82.7096 62.569 81.4021 62.2173 79.7276C61.8656 78.0531 61.6821 76.0651 61.6821 73.7559V52.637C61.6821 52.0865 61.5292 51.8112 61.231 51.8112H58.6771C57.989 51.8112 57.6449 51.1536 57.6449 49.8385V47.6134C57.6449 46.2677 57.989 45.5948 58.6771 45.5948H61.231C61.5292 45.5948 61.6821 45.2278 61.6821 44.4861L62.4238 28.4673C62.5079 27.0145 62.8596 26.2881 63.4942 26.2881H67.6156C68.3037 26.2881 68.6478 27.0145 68.6478 28.4673V44.4861C68.6478 45.2278 68.8084 45.5948 69.1448 45.5948H74.3978C75.0859 45.5948 75.43 46.2677 75.43 47.6134V49.8385C75.43 51.1536 75.0859 51.8112 74.3978 51.8112H69.1295C68.9384 51.8112 68.8084 51.8571 68.7396 51.9565C68.6707 52.0482 68.6402 52.2776 68.6402 52.637V73.8859C68.6402 75.4763 68.7396 76.8068 68.946 77.8619C69.1525 78.9171 69.4507 79.697 69.8483 80.1864C70.2459 80.6757 70.6435 81.0122 71.0411 81.1728C71.4387 81.341 71.928 81.4174 72.5015 81.4174H75.4224C76.1641 81.4174 76.5311 81.9297 76.5311 82.939V85.4088C76.5311 86.5328 76.1335 87.0986 75.3383 87.0986L71.1481 87.1062ZM86.9529 92.0457C87.5799 92.0457 88.1304 91.5334 88.5968 90.5012C89.0632 89.4689 89.3003 88.0085 89.3003 86.1122C89.3003 85.6687 89.025 84.1471 88.4745 81.5398L80.4001 47.9805C80.3465 47.5981 80.316 47.2923 80.316 47.0705C80.316 46.0842 80.5224 45.5872 80.9353 45.5872H85.9206C86.303 45.5872 86.6165 45.7172 86.8688 45.9771C87.1211 46.2371 87.3123 46.7647 87.4423 47.5599L92.7946 75.8892C92.9017 76.218 92.9705 76.3862 93.0011 76.3862C93.1081 76.3862 93.1693 76.2333 93.1693 75.9351L97.3671 47.6822C97.4741 46.8565 97.65 46.3059 97.8794 46.0154C98.1087 45.7248 98.407 45.5795 98.7663 45.5795H102.222C102.689 45.5795 102.926 46.1148 102.926 47.1852C102.926 47.4299 102.895 47.7511 102.842 48.1334L95.509 86.311C94.9356 89.4689 94.3009 91.8851 93.6128 93.5597C92.9246 95.2342 92.16 96.3735 91.3036 96.9775C90.2985 97.6272 89.1203 97.9577 87.924 97.9257H87.5111C85.286 97.9257 83.7797 97.3369 82.9845 96.1517C82.7628 95.907 82.6557 95.2724 82.6557 94.2555C82.6557 92.2216 82.9845 91.2046 83.6421 91.2046C83.6956 91.2046 84.1926 91.3422 85.1254 91.6175C86.0736 91.9081 86.6776 92.0457 86.9529 92.0457ZM22.2657 87.0986C21.5776 87.0986 21.2335 86.181 21.2335 84.3383V38.8356C21.2335 37.9562 21.0576 37.5433 20.6983 37.5969L17.4027 38.4227C16.7987 38.4762 16.5005 37.8721 16.5005 36.6105V32.6574C16.5005 31.564 16.8293 30.9446 17.4869 30.807L28.3674 28.0008C28.4516 27.9779 28.5739 27.9626 28.7345 27.9626C29.3385 27.9626 29.6367 28.6049 29.6367 29.8971V84.3383C29.6367 86.181 29.2773 87.0986 28.5662 87.0986H22.2657Z" fill="white" stroke="white" stroke-width="3.56824" stroke-miterlimit="10"/>
</svg>
