<svg xmlns="http://www.w3.org/2000/svg" width="120" height="120" fill="none"><path fill="#fff" d="M37 85h45V39H37z"/><path fill="#E5422B" d="M107.367 0H12.633A12.58 12.58 0 0 0 0 12.633v94.734C0 114.386 5.61 120 12.633 120h94.734A12.669 12.669 0 0 0 120 107.367V12.633A12.578 12.578 0 0 0 107.367 0ZM59.788 73.124c3.931 0 8.141-1.546 12.21-5.195l5.614 6.458c-5.893 4.77-12.633 7.439-19.366 7.439-13.335 0-21.755-8.843-19.79-21.335 1.966-12.492 13.333-21.332 26.668-21.332 6.458 0 12.492 2.527 16.702 7.156l-7.862 6.458c-2.245-2.95-6.035-4.916-10.245-4.916-8 0-14.175 5.195-15.438 12.634-1.122 7.438 3.366 12.633 11.507 12.633Z"/></svg>