<svg width="106" height="120" viewBox="0 0 106 120" fill="none" xmlns="http://www.w3.org/2000/svg">
<path d="M91.9672 23.5646C91.8846 22.9646 91.359 22.6325 90.9246 22.5959C90.491 22.5598 81.3151 21.8796 81.3151 21.8796C81.3151 21.8796 74.9424 15.5529 74.2429 14.8526C73.5431 14.1528 72.1762 14.3657 71.6457 14.5218C71.5676 14.5448 70.2533 14.9504 68.0794 15.6232C65.9506 9.49743 62.1936 3.86812 55.5842 3.86812C55.4017 3.86812 55.2139 3.87552 55.0261 3.8862C53.1464 1.40031 50.8179 0.320312 48.8066 0.320312C33.4101 0.320312 26.0543 19.5676 23.748 29.3484C17.7653 31.2022 13.5151 32.5202 12.9722 32.6907C9.63279 33.7383 9.52718 33.8435 9.08868 36.9902C8.75868 39.3725 0.020874 106.946 0.020874 106.946L68.1077 119.703L105 111.722C105 111.722 92.0486 24.1646 91.9672 23.5646ZM64.3162 16.787L58.555 18.5702C58.557 18.1641 58.5591 17.7647 58.5591 17.3278C58.5591 13.5207 58.0306 10.4554 57.1828 8.02538C60.5884 8.45278 62.8565 12.3277 64.3162 16.787ZM52.9581 8.78031C53.905 11.1528 54.5206 14.5576 54.5206 19.1521C54.5206 19.3872 54.5185 19.6021 54.5165 19.8195C50.7698 20.98 46.6984 22.24 42.618 23.5041C44.9091 14.662 49.2036 10.3913 52.9581 8.78031ZM48.3838 4.45004C49.0483 4.45004 49.7177 4.67565 50.3584 5.11661C45.424 7.43853 40.135 13.2865 37.9014 24.9647L28.4962 27.8776C31.1124 18.97 37.3248 4.45004 48.3838 4.45004Z" fill="#95BF46"/>
<path d="M90.9245 22.5953C90.491 22.5592 81.3151 21.879 81.3151 21.879C81.3151 21.879 74.9423 15.5523 74.2429 14.852C73.9811 14.5915 73.6281 14.4579 73.259 14.4004L68.111 119.702L104.999 111.722C104.999 111.722 92.0485 24.164 91.9671 23.564C91.8845 22.964 91.3589 22.6319 90.9245 22.5953Z" fill="#5E8E3E"/>
<path d="M55.5842 42.98L51.0353 56.5112C51.0353 56.5112 47.0498 54.3841 42.1644 54.3841C35.0022 54.3841 34.6418 58.8788 34.6418 60.0114C34.6418 66.1914 50.7513 68.5593 50.7513 83.0349C50.7513 94.4238 43.5279 101.757 33.7882 101.757C22.1005 101.757 16.1235 94.4834 16.1235 94.4834L19.253 84.1437C19.253 84.1437 25.3968 89.4184 30.5811 89.4184C33.9686 89.4184 35.3465 86.7512 35.3465 84.8025C35.3465 76.7411 22.1301 76.3815 22.1301 63.1351C22.1301 51.9862 30.1323 41.1973 46.2854 41.1973C52.5094 41.1973 55.5842 42.98 55.5842 42.98Z" fill="white"/>
</svg>
