<svg width="120" height="119" viewBox="0 0 120 119" fill="none" xmlns="http://www.w3.org/2000/svg">
<g clip-path="url(#clip0_929_267)">
<ellipse cx="60" cy="59.285" rx="60" ry="59.285" fill="white"/>
<path d="M8.52931 59.2839C8.52931 79.4159 20.3694 96.8122 37.5384 105.057L12.9856 38.5857C10.0423 45.0982 8.52374 52.1514 8.52931 59.2839ZM94.7486 56.7174C94.7486 50.4319 92.4636 46.0789 90.5038 42.6909C87.8947 38.5015 85.4501 34.9537 85.4501 30.7643C85.4501 26.0891 89.0376 21.7372 94.0924 21.7372C94.3205 21.7372 94.537 21.7652 94.7603 21.7778C85.6019 13.4881 73.4014 8.42676 60.0011 8.42676C42.0192 8.42676 26.1988 17.5429 16.9953 31.3508C18.2029 31.3866 19.342 31.4108 20.3077 31.4108C25.6915 31.4108 34.0253 30.7653 34.0253 30.7653C36.7999 30.6037 37.127 34.6305 34.3563 34.9547C34.3563 34.9547 31.5669 35.2789 28.4642 35.4395L47.2081 90.5286L58.4732 57.148L50.4529 35.4385C47.6811 35.2779 45.0554 34.9537 45.0554 34.9537C42.2817 34.7931 42.6068 30.6027 45.3805 30.7643C45.3805 30.7643 53.8808 31.4098 58.9385 31.4098C64.3213 31.4098 72.656 30.7643 72.656 30.7643C75.4327 30.6027 75.7588 34.6295 72.9861 34.9537C72.9861 34.9537 70.1919 35.2779 67.095 35.4385L85.6959 90.1105L90.829 73.1585C93.0552 66.1239 94.7486 61.0713 94.7486 56.7174Z" fill="#00749A"/>
<path d="M60.904 63.7333L45.4607 108.074C50.1821 109.449 55.0788 110.147 60.001 110.147C65.995 110.147 71.7431 109.122 77.0936 107.264C76.9501 107.042 76.8275 106.807 76.7273 106.563L60.904 63.7333ZM105.165 34.8838C105.387 36.5038 105.512 38.2438 105.512 40.1135C105.512 45.2745 104.537 51.0762 101.598 58.3304L85.876 103.246C101.178 94.4293 111.471 78.0483 111.471 59.2846C111.485 50.7558 109.316 42.3621 105.165 34.8838Z" fill="#00749A"/>
<path d="M60.001 0C26.9176 0 0.000488281 26.5947 0.000488281 59.2843C0.000488281 91.9777 26.9166 118.572 60.001 118.572C93.0834 118.572 120.004 91.9787 120.004 59.2843C120.003 26.5947 93.0834 0 60.001 0ZM60.001 115.854C28.4347 115.854 2.75165 90.4767 2.75165 59.2843C2.75165 28.0947 28.4337 2.71937 60.001 2.71937C91.5663 2.71937 117.247 28.0947 117.247 59.2843C117.247 90.4767 91.5653 115.854 60.001 115.854Z" fill="#00749A"/>
</g>
<defs>
<clipPath id="clip0_929_267">
<rect width="120" height="118.571" fill="white"/>
</clipPath>
</defs>
</svg>
